<?xml version="1.0" standalone="no"?>
<!DOCTYPE svg PUBLIC "-//W3C//DTD SVG 20010904//EN"
 "http://www.w3.org/TR/2001/REC-SVG-20010904/DTD/svg10.dtd">
<svg version="1.0" xmlns="http://www.w3.org/2000/svg"
 width="84.000000pt" height="84.000000pt" viewBox="0 0 84.000000 84.000000"
 preserveAspectRatio="xMidYMid meet">
<metadata>
Created by potrace 1.14, written by Peter Selinger 2001-2017
</metadata>
<g transform="translate(0.000000,84.000000) scale(0.100000,-0.100000)"
fill="#000000" stroke="none">
<path d="M303 795 c-29 -13 -53 -28 -53 -33 0 -5 22 -12 49 -16 58 -8 70 -27
46 -72 -17 -34 -19 -62 -5 -99 14 -38 -14 -88 -92 -161 -102 -96 -117 -126
-74 -146 19 -8 34 -7 66 6 45 18 86 22 60 7 -8 -6 -17 -8 -21 -5 -4 2 -16 -11
-27 -29 -16 -28 -30 -36 -86 -51 -68 -19 -86 -35 -86 -77 0 -36 46 -87 84 -95
59 -10 73 1 97 75 17 51 28 71 50 84 17 9 29 25 29 36 0 28 14 33 46 16 31
-17 120 -18 188 -3 110 25 154 121 122 268 l-14 65 41 42 c34 36 38 44 27 58
-17 21 -27 19 -58 -12 -66 -66 -69 -67 -96 -49 -22 14 -25 23 -23 66 2 63 -23
92 -81 94 -24 1 -55 12 -80 29 -23 15 -45 27 -49 26 -5 0 -32 -11 -60 -24z
m146 -54 c28 -23 33 -32 27 -54 -8 -34 -61 -64 -82 -46 -8 6 -13 14 -10 16 2
2 0 19 -4 38 -5 22 -4 35 3 38 22 7 -6 27 -39 27 -41 0 -45 15 -6 28 30 10 52
1 111 -47z m99 -34 c10 -21 10 -32 -4 -66 -30 -75 -129 -116 -173 -72 -22 22
-28 65 -11 76 6 3 10 -3 10 -14 0 -58 75 -68 126 -17 40 40 44 79 12 113 l-22
24 24 -9 c14 -5 31 -21 38 -35z m-38 -28 c0 -31 -53 -79 -87 -79 -26 0 -25 2
15 20 30 14 47 29 55 50 13 35 17 37 17 9z m190 -64 c-19 -19 -38 -35 -43 -35
-6 0 8 17 29 39 48 48 61 44 14 -4z m-65 -52 c34 -11 43 -39 47 -143 4 -119
-49 -168 -193 -177 -73 -5 -79 -4 -103 20 -50 51 -89 59 -152 32 -33 -14 -64
-11 -64 5 0 4 32 39 71 77 39 37 84 88 99 111 28 42 31 44 82 45 41 2 61 8 91
31 20 15 37 33 37 38 0 5 12 1 28 -10 15 -10 40 -24 57 -29z m-318 -328 c8
-23 -4 -30 -22 -12 -19 20 -19 27 0 27 9 0 18 -7 22 -15z m-120 -61 c-3 -3
-12 -4 -19 -1 -8 3 -5 6 6 6 11 1 17 -2 13 -5z m19 -29 c-27 -41 -17 -52 14
-15 24 30 28 31 23 12 -3 -13 -12 -26 -20 -29 -8 -3 -11 -13 -7 -25 8 -25 -12
-48 -43 -48 -32 0 -83 51 -83 84 0 30 36 44 68 27 14 -8 24 -7 38 4 27 20 29
18 10 -10z"/>
<path d="M550 552 c0 -14 65 -45 81 -40 9 3 -2 13 -28 26 -47 24 -53 26 -53
14z"/>
<path d="M535 510 c3 -5 26 -24 51 -40 41 -29 44 -34 44 -75 0 -24 5 -47 10
-50 18 -11 16 91 -3 113 -27 33 -119 80 -102 52z"/>
<path d="M316 341 c-3 -5 6 -12 20 -15 14 -4 37 -18 50 -31 14 -14 38 -27 54
-30 35 -6 41 10 8 21 -13 4 -36 17 -53 29 -37 28 -71 39 -79 26z"/>
</g>
</svg>
